<svg xmlns="http://www.w3.org/2000/svg" xmlns:xlink="http://www.w3.org/1999/xlink" width="500" zoomAndPan="magnify" viewBox="0 0 375 374.999991" height="500" preserveAspectRatio="xMidYMid meet" version="1.0"><defs><clipPath id="818f7702a7"><path d="M 160 308 L 235 308 L 235 337.5 L 160 337.5 Z M 160 308 " clip-rule="nonzero"/></clipPath></defs><path fill="#000000" d="M 81 81 C 79 82.5 77.5 119.5 77.5 162.5 L 77.5 240.5 L 101.5 264 L 125.5 288 L 205.5 286.5 L 285 285 L 286.5 205.5 L 288 125.5 L 264 101.5 L 240.5 77.5 L 162.5 77.5 C 119.5 77.5 82.5 79 81 81 Z M 245 107.5 C 254 117.5 253.5 117.5 191.5 117.5 C 135.5 117.5 128 116.5 120 107.5 C 111 97.5 111.5 97.5 173.5 97.5 C 229.5 97.5 237 98.5 245 107.5 Z M 117.5 191.5 C 117.5 253.5 117.5 254 107.5 245 C 98.5 237 97.5 229.5 97.5 173.5 C 97.5 111.5 97.5 111 107.5 120 C 116.5 128 117.5 135.5 117.5 191.5 Z M 267.5 202.5 L 267.5 267.5 L 137.5 267.5 L 137.5 137.5 L 267.5 137.5 Z M 267.5 202.5 " fill-opacity="1" fill-rule="nonzero"/><path fill="#000000" d="M 308 207.5 L 308 245 L 322.5 227.5 C 330.5 218 337 209 337 207.5 C 337 206 330.5 197 322.5 187.5 L 308 170 Z M 308 207.5 " fill-opacity="1" fill-rule="nonzero"/><g clip-path="url(#818f7702a7)"><path fill="#000000" d="M 177.5 322.5 C 187 330.5 196 337.5 197.5 337.5 C 199 337.5 208 331 217.5 322.5 L 235 308 L 160 308 Z M 177.5 322.5 " fill-opacity="1" fill-rule="nonzero"/></g></svg>