<svg xmlns="http://www.w3.org/2000/svg" xmlns:xlink="http://www.w3.org/1999/xlink" width="500" zoomAndPan="magnify" viewBox="0 0 375 374.999991" height="500" preserveAspectRatio="xMidYMid meet" version="1.0"><defs><clipPath id="9b9ed98f39"><path d="M 38 37.5 L 337.5 37.5 L 337.5 337.5 L 38 337.5 Z M 38 37.5 " clip-rule="nonzero"/></clipPath></defs><g clip-path="url(#9b9ed98f39)"><path fill="#ff26be" d="M 38.207031 37.917969 L 337.371094 37.917969 L 337.371094 337.082031 L 38.207031 337.082031 Z M 38.207031 37.917969 " fill-opacity="1" fill-rule="nonzero"/></g><path fill="#2e001f" d="M 51.367188 51.082031 L 324.207031 51.082031 L 324.207031 323.921875 L 51.367188 323.921875 Z M 51.367188 51.082031 " fill-opacity="1" fill-rule="nonzero"/><path fill="#ffd9f2" d="M 193.511719 118.003906 L 170.144531 118.003906 L 145.058594 170.472656 L 119.636719 118.003906 L 95.5625 118.003906 L 129.632812 186.132812 L 94.34375 255.890625 L 118.132812 255.890625 L 143.667969 202.429688 L 169.5 255.890625 L 195.25 255.890625 L 158.882812 185.3125 Z M 258.117188 118.003906 L 258.117188 153.066406 C 258.117188 153.066406 254.074219 153.066406 251.382812 153.066406 C 228.402344 153.066406 200.621094 167.886719 200.621094 205.738281 C 200.621094 235 215.445312 256.996094 247.027344 256.996094 C 270.28125 256.996094 281.234375 248.953125 281.234375 248.953125 L 281.234375 118.003906 Z M 258.09375 236.855469 C 258.09375 236.855469 255.433594 238.023438 249.152344 238.023438 C 242.871094 238.023438 223.605469 235.257812 223.605469 204.707031 C 223.605469 174.15625 245.746094 171.707031 251.066406 171.707031 C 256.390625 171.707031 258.09375 173.199219 258.09375 173.199219 Z M 258.09375 236.855469 " fill-opacity="1" fill-rule="nonzero"/></svg>