<svg xmlns="http://www.w3.org/2000/svg" xmlns:xlink="http://www.w3.org/1999/xlink" width="500" zoomAndPan="magnify" viewBox="0 0 375 374.999991" height="500" preserveAspectRatio="xMidYMid meet" version="1.0"><path fill="#000000" d="M 175 55 C 181.667969 55 188.332031 55 195 55 C 195 61.667969 195 68.332031 195 75 C 188.332031 75 181.667969 75 175 75 C 175 68.332031 175 61.667969 175 55 Z M 175 55 " fill-opacity="0.766" fill-rule="evenodd"/><path fill="#000000" d="M 175 95 C 181.667969 95 188.332031 95 195 95 C 195 101.667969 195 108.332031 195 115 C 188.332031 115 181.667969 115 175 115 C 175 108.332031 175 101.667969 175 95 Z M 175 95 " fill-opacity="0.766" fill-rule="evenodd"/><path fill="#000000" d="M 175 135 C 181.667969 135 188.332031 135 195 135 C 194.171875 161.71875 195.003906 188.386719 197.5 215 C 206.078125 200.511719 218.578125 193.847656 235 195 C 235.785156 201.867188 234.949219 208.535156 232.5 215 C 218.332031 229.167969 204.167969 243.332031 190 257.5 C 165.921875 245.15625 145.921875 226.820312 130 202.5 C 147.789062 191.339844 161.953125 195.507812 172.5 215 C 174.996094 188.386719 175.828125 161.71875 175 135 Z M 175 135 " fill-opacity="0.873" fill-rule="evenodd"/><path fill="#000000" d="M 65 215 C 71.667969 215 78.332031 215 85 215 C 85 238.332031 85 261.667969 85 285 C 151.667969 285 218.332031 285 285 285 C 285 261.667969 285 238.332031 285 215 C 291.667969 215 298.332031 215 305 215 C 306.539062 244.628906 304.875 273.792969 300 302.5 C 223.332031 305.832031 146.667969 305.832031 70 302.5 C 65.125 273.792969 63.457031 244.628906 65 215 Z M 65 215 " fill-opacity="0.97" fill-rule="evenodd"/></svg>