<svg xmlns="http://www.w3.org/2000/svg" xmlns:xlink="http://www.w3.org/1999/xlink" width="500" zoomAndPan="magnify" viewBox="0 0 375 374.999991" height="500" preserveAspectRatio="xMidYMid meet" version="1.0"><path fill="#0acf83" d="M 145.832031 312.5 C 168.832031 312.5 187.5 293.832031 187.5 270.832031 L 187.5 229.167969 L 145.832031 229.167969 C 122.832031 229.167969 104.167969 247.832031 104.167969 270.832031 C 104.167969 293.832031 122.832031 312.5 145.832031 312.5 Z M 145.832031 312.5 " fill-opacity="1" fill-rule="nonzero"/><path fill="#a259ff" d="M 104.167969 187.5 C 104.167969 164.5 122.832031 145.832031 145.832031 145.832031 L 187.5 145.832031 L 187.5 229.167969 L 145.832031 229.167969 C 122.832031 229.167969 104.167969 210.5 104.167969 187.5 Z M 104.167969 187.5 " fill-opacity="1" fill-rule="nonzero"/><path fill="#f24e1e" d="M 104.167969 104.167969 C 104.167969 81.167969 122.832031 62.5 145.832031 62.5 L 187.5 62.5 L 187.5 145.832031 L 145.832031 145.832031 C 122.832031 145.832031 104.167969 127.167969 104.167969 104.167969 Z M 104.167969 104.167969 " fill-opacity="1" fill-rule="nonzero"/><path fill="#ff7262" d="M 187.5 62.5 L 229.167969 62.5 C 252.167969 62.5 270.832031 81.167969 270.832031 104.167969 C 270.832031 127.167969 252.167969 145.832031 229.167969 145.832031 L 187.5 145.832031 Z M 187.5 62.5 " fill-opacity="1" fill-rule="nonzero"/><path fill="#1abcfe" d="M 270.832031 187.5 C 270.832031 210.5 252.167969 229.167969 229.167969 229.167969 C 206.167969 229.167969 187.5 210.5 187.5 187.5 C 187.5 164.5 206.167969 145.832031 229.167969 145.832031 C 252.167969 145.832031 270.832031 164.5 270.832031 187.5 Z M 270.832031 187.5 " fill-opacity="1" fill-rule="nonzero"/></svg>