<svg xmlns="http://www.w3.org/2000/svg" xmlns:xlink="http://www.w3.org/1999/xlink" width="500" zoomAndPan="magnify" viewBox="0 0 375 374.999991" height="500" preserveAspectRatio="xMidYMid meet" version="1.0"><path fill="#000000" d="M 149.398438 60.300781 C 148.5 63 148.800781 67.5 150.601562 70.199219 C 152.699219 73.800781 152.101562 78.601562 147.898438 88.199219 C 140.699219 105.601562 142.5 109.5 157.5 109.5 C 172.5 109.5 174.300781 105.601562 167.101562 88.199219 C 162.898438 78.601562 162.300781 73.800781 164.398438 70.199219 C 168.601562 63.300781 165 55.5 157.5 55.5 C 154.199219 55.5 150.601562 57.601562 149.398438 60.300781 Z M 149.398438 60.300781 " fill-opacity="1" fill-rule="nonzero"/><path fill="#000000" d="M 63 65.398438 C 62.101562 67.199219 61.800781 123.601562 62.101562 190.5 L 63 312 L 312 312 L 312 63 L 245.699219 62.101562 C 181.199219 61.5 179.101562 61.5 177.601562 67.5 C 176.699219 70.800781 177.300781 73.5 178.800781 73.5 C 180.300781 73.5 181.5 84.300781 181.5 97.5 L 181.5 121.5 L 132.601562 121.5 L 135.601562 61.5 L 99.898438 61.5 C 74.101562 61.5 63.898438 62.398438 63 65.398438 Z M 121.5 97.5 L 121.5 121.5 L 73.5 121.5 L 73.5 73.5 L 121.5 73.5 Z M 241.5 97.5 L 241.5 121.5 L 193.5 121.5 L 193.5 73.5 L 241.5 73.5 Z M 301.5 97.5 L 301.5 121.5 L 253.5 121.5 L 253.5 73.5 L 301.5 73.5 Z M 121.5 157.5 L 121.5 181.5 L 73.5 181.5 L 73.5 133.5 L 121.5 133.5 Z M 241.5 187.5 L 241.5 241.5 L 133.5 241.5 L 133.5 133.5 L 241.5 133.5 Z M 301.5 157.5 L 301.5 181.5 L 253.5 181.5 L 253.5 133.5 L 301.5 133.5 Z M 121.5 217.5 L 121.5 241.5 L 73.5 241.5 L 73.5 193.5 L 121.5 193.5 Z M 301.5 217.5 L 301.5 241.5 L 253.5 241.5 L 253.5 193.5 L 301.5 193.5 Z M 121.5 277.5 L 121.5 301.5 L 73.5 301.5 L 73.5 253.5 L 121.5 253.5 Z M 181.5 277.5 L 181.5 301.5 L 133.5 301.5 L 133.5 253.5 L 181.5 253.5 Z M 241.5 277.5 L 241.5 301.5 L 193.5 301.5 L 193.5 253.5 L 241.5 253.5 Z M 301.5 277.5 L 301.5 301.5 L 253.5 301.5 L 253.5 253.5 L 301.5 253.5 Z M 301.5 277.5 " fill-opacity="1" fill-rule="nonzero"/><path fill="#000000" d="M 152.699219 149.398438 C 151.800781 151.800781 151.5 162.300781 152.101562 172.800781 L 153 192 L 222 192 L 222 147 L 188.101562 146.101562 C 161.398438 145.5 153.898438 146.101562 152.699219 149.398438 Z M 211.5 169.5 L 211.5 181.5 L 163.5 181.5 L 163.5 157.5 L 211.5 157.5 Z M 211.5 169.5 " fill-opacity="1" fill-rule="nonzero"/><path fill="#000000" d="M 157.5 217.5 L 157.5 229.5 L 181.5 229.5 L 181.5 205.5 L 157.5 205.5 Z M 157.5 217.5 " fill-opacity="1" fill-rule="nonzero"/><path fill="#000000" d="M 196.5 210 C 192 215.398438 193.5 223.5 200.398438 227.699219 C 210.601562 234.300781 222.300781 219.601562 214.5 210 C 209.699219 204.300781 201.300781 204.300781 196.5 210 Z M 196.5 210 " fill-opacity="1" fill-rule="nonzero"/></svg>