<svg xmlns="http://www.w3.org/2000/svg" xmlns:xlink="http://www.w3.org/1999/xlink" width="500" zoomAndPan="magnify" viewBox="0 0 375 374.999991" height="500" preserveAspectRatio="xMidYMid meet" version="1.0"><path fill="#000000" d="M 173.75 63.75 C 116.25 70 70 116.25 63.75 172.5 C 57.5 231.25 91.25 283.75 142.5 303.75 C 146.25 305 150 302.5 150 297.5 L 150 277.5 C 150 277.5 145 278.75 138.75 278.75 C 121.25 278.75 113.75 263.75 112.5 255 C 111.25 250 108.75 246.25 105 242.5 C 101.25 241.25 100 241.25 100 240 C 100 237.5 103.75 237.5 105 237.5 C 112.5 237.5 118.75 246.25 121.25 250 C 127.5 260 135 262.5 138.75 262.5 C 143.75 262.5 147.5 261.25 150 260 C 151.25 251.25 155 242.5 162.5 237.5 C 133.75 231.25 112.5 215 112.5 187.5 C 112.5 173.75 118.75 160 127.5 150 C 126.25 147.5 125 141.25 125 132.5 C 125 127.5 125 121.25 127.5 116.25 C 127.5 113.75 130 112.5 131.25 112.5 C 131.25 112.5 132.5 112.5 132.5 112.5 C 138.75 113.75 151.25 117.5 162.5 128.75 C 170 126.25 178.75 125 187.5 125 C 196.25 125 205 126.25 212.5 128.75 C 223.75 117.5 237.5 113.75 243.75 112.5 C 243.75 112.5 245 112.5 245 112.5 C 247.5 112.5 248.75 113.75 250 116.25 C 250 121.25 250 127.5 250 132.5 C 250 142.5 248.75 147.5 247.5 150 C 256.25 160 262.5 172.5 262.5 187.5 C 262.5 215 241.25 231.25 212.5 237.5 C 220 243.75 225 255 225 266.25 L 225 298.75 C 225 302.5 228.75 306.25 233.75 305 C 280 286.25 312.5 241.25 312.5 188.75 C 312.5 113.75 248.75 55 173.75 63.75 Z M 173.75 63.75 " fill-opacity="1" fill-rule="nonzero"/></svg>