<svg xmlns="http://www.w3.org/2000/svg" xmlns:xlink="http://www.w3.org/1999/xlink" width="500" zoomAndPan="magnify" viewBox="0 0 375 374.999991" height="500" preserveAspectRatio="xMidYMid meet" version="1.0"><path fill="#000000" d="M 282.300781 61.5 L 263.398438 79.5 L 160.199219 79.5 C 83.699219 79.5 55.800781 80.398438 53.101562 83.101562 C 48 88.199219 48 244.800781 53.101562 249.898438 C 55.5 252.300781 71.101562 253.5 104.101562 253.5 L 151.5 253.5 L 151.5 265.5 C 151.5 277.199219 151.199219 277.5 141 277.5 C 127.800781 277.5 114.601562 289.199219 116.101562 299.398438 L 117 306 L 258 306 L 258.898438 299.398438 C 260.398438 289.199219 247.199219 277.5 234 277.5 C 223.800781 277.5 223.5 277.199219 223.5 265.5 L 223.5 253.5 L 270.898438 253.5 C 303.898438 253.5 319.5 252.300781 321.898438 249.898438 C 324.601562 247.199219 325.5 224.398438 325.5 166.800781 C 325.800781 101.398438 326.398438 85.800781 330 81.300781 C 341.101562 66.601562 329.101562 43.5 310.5 43.5 C 303 43.5 297 47.398438 282.300781 61.5 Z M 318.898438 59.101562 C 321 61.199219 322.5 64.800781 322.5 67.199219 C 322.5 69.898438 307.5 87 288.898438 105.601562 L 255.300781 139.5 L 246.898438 131.398438 L 238.5 123.300781 L 272.101562 89.398438 C 290.699219 70.800781 308.101562 55.5 310.5 55.5 C 313.199219 55.5 316.800781 57 318.898438 59.101562 Z M 225 118.5 C 210.300781 133.199219 196.5 145.5 194.699219 145.5 C 187.199219 145.5 175.800781 163.800781 173.699219 178.5 L 171.601562 193.199219 L 126.300781 194.101562 C 88.5 195 81 195.601562 81 199.5 C 81 203.398438 89.699219 204 137.398438 204.898438 C 199.800781 205.800781 214.800781 203.398438 224.699219 191.101562 C 228.300781 186.898438 249.601562 164.398438 272.101562 141 L 313.5 99 L 313.5 217.5 L 61.5 217.5 L 61.5 91.5 L 252 91.5 Z M 238.5 155.699219 L 229.5 165 L 221.398438 156.601562 L 213.300781 148.5 L 230.699219 130.5 L 239.101562 138.601562 L 247.5 146.699219 Z M 213.601562 164.101562 C 226.800781 176.398438 219.601562 187.800781 195.898438 192 C 185.101562 194.101562 184.5 193.800781 184.5 186.300781 C 184.5 181.800781 186.601562 173.699219 188.699219 168 C 194.101562 155.398438 203.101562 154.199219 213.601562 164.101562 Z M 313.5 235.5 C 313.5 241.5 311.398438 241.5 187.5 241.5 C 63.601562 241.5 61.5 241.5 61.5 235.5 C 61.5 229.5 63.601562 229.5 187.5 229.5 C 311.398438 229.5 313.5 229.5 313.5 235.5 Z M 211.5 265.5 L 211.5 277.5 L 163.5 277.5 L 163.5 253.5 L 211.5 253.5 Z M 243 292.5 C 244.199219 294.601562 225 295.5 187.5 295.5 C 150 295.5 130.800781 294.601562 132 292.5 C 134.398438 288.601562 240.601562 288.601562 243 292.5 Z M 243 292.5 " fill-opacity="1" fill-rule="nonzero"/></svg>