<svg xmlns="http://www.w3.org/2000/svg" xmlns:xlink="http://www.w3.org/1999/xlink" width="500" zoomAndPan="magnify" viewBox="0 0 375 374.999991" height="500" preserveAspectRatio="xMidYMid meet" version="1.0"><path fill="#000000" d="M 187.5 59.5 C 152.738281 59.5 148.378906 59.648438 134.726562 60.269531 C 121.101562 60.890625 111.796875 63.054688 103.65625 66.21875 C 95.238281 69.492188 88.097656 73.867188 80.984375 80.984375 C 73.867188 88.101562 69.492188 95.238281 66.21875 103.65625 C 63.054688 111.796875 60.890625 121.101562 60.269531 134.726562 C 59.648438 148.378906 59.5 152.738281 59.5 187.5 C 59.5 222.261719 59.648438 226.621094 60.269531 240.273438 C 60.890625 253.898438 63.054688 263.203125 66.21875 271.34375 C 69.492188 279.761719 73.867188 286.898438 80.984375 294.015625 C 88.097656 301.132812 95.238281 305.507812 103.65625 308.78125 C 111.796875 311.945312 121.101562 314.105469 134.726562 314.730469 C 148.378906 315.351562 152.738281 315.5 187.5 315.5 C 222.261719 315.5 226.621094 315.351562 240.273438 314.730469 C 253.898438 314.105469 263.203125 311.945312 271.34375 308.78125 C 279.761719 305.507812 286.898438 301.132812 294.015625 294.015625 C 301.132812 286.898438 305.507812 279.761719 308.78125 271.34375 C 311.945312 263.203125 314.105469 253.898438 314.730469 240.273438 C 315.351562 226.621094 315.5 222.261719 315.5 187.5 C 315.5 152.738281 315.351562 148.378906 314.730469 134.726562 C 314.105469 121.101562 311.945312 111.796875 308.78125 103.65625 C 305.507812 95.238281 301.132812 88.101562 294.015625 80.984375 C 286.898438 73.867188 279.761719 69.492188 271.34375 66.21875 C 263.203125 63.054688 253.898438 60.890625 240.273438 60.269531 C 226.621094 59.648438 222.261719 59.5 187.5 59.5 Z M 187.5 82.5625 C 221.675781 82.5625 225.726562 82.695312 239.222656 83.308594 C 251.703125 83.878906 258.480469 85.964844 262.988281 87.714844 C 268.964844 90.039062 273.230469 92.8125 277.707031 97.292969 C 282.1875 101.769531 284.960938 106.035156 287.28125 112.007812 C 289.035156 116.519531 291.121094 123.296875 291.691406 135.777344 C 292.304688 149.273438 292.4375 153.320312 292.4375 187.5 C 292.4375 221.675781 292.304688 225.726562 291.691406 239.222656 C 291.121094 251.703125 289.035156 258.480469 287.28125 262.988281 C 284.960938 268.964844 282.1875 273.230469 277.707031 277.707031 C 273.230469 282.1875 268.964844 284.960938 262.988281 287.28125 C 258.480469 289.035156 251.703125 291.121094 239.222656 291.691406 C 225.726562 292.304688 221.679688 292.4375 187.5 292.4375 C 153.320312 292.4375 149.273438 292.304688 135.777344 291.691406 C 123.296875 291.121094 116.519531 289.035156 112.007812 287.28125 C 106.035156 284.960938 101.769531 282.1875 97.292969 277.707031 C 92.8125 273.230469 90.039062 268.964844 87.714844 262.988281 C 85.964844 258.480469 83.878906 251.703125 83.308594 239.222656 C 82.691406 225.726562 82.5625 221.675781 82.5625 187.5 C 82.5625 153.320312 82.691406 149.273438 83.308594 135.777344 C 83.878906 123.296875 85.964844 116.519531 87.714844 112.007812 C 90.039062 106.035156 92.8125 101.769531 97.292969 97.292969 C 101.769531 92.8125 106.035156 90.039062 112.007812 87.714844 C 116.519531 85.964844 123.296875 83.878906 135.777344 83.308594 C 149.273438 82.695312 153.324219 82.5625 187.5 82.5625 Z M 187.5 82.5625 " fill-opacity="1" fill-rule="nonzero"/><path fill="#030404" d="M 187.5 230.167969 C 163.933594 230.167969 144.832031 211.0625 144.832031 187.5 C 144.832031 163.933594 163.933594 144.832031 187.5 144.832031 C 211.0625 144.832031 230.167969 163.933594 230.167969 187.5 C 230.167969 211.0625 211.0625 230.167969 187.5 230.167969 Z M 187.5 121.769531 C 151.199219 121.769531 121.769531 151.199219 121.769531 187.5 C 121.769531 223.800781 151.199219 253.230469 187.5 253.230469 C 223.800781 253.230469 253.230469 223.800781 253.230469 187.5 C 253.230469 151.199219 223.800781 121.769531 187.5 121.769531 Z M 187.5 121.769531 " fill-opacity="1" fill-rule="nonzero"/><path fill="#030404" d="M 271.1875 119.171875 C 271.1875 127.65625 264.308594 134.53125 255.824219 134.53125 C 247.34375 134.53125 240.464844 127.65625 240.464844 119.171875 C 240.464844 110.691406 247.34375 103.8125 255.824219 103.8125 C 264.308594 103.8125 271.1875 110.691406 271.1875 119.171875 Z M 271.1875 119.171875 " fill-opacity="1" fill-rule="nonzero"/></svg>