<svg xmlns="http://www.w3.org/2000/svg" xmlns:xlink="http://www.w3.org/1999/xlink" width="500" zoomAndPan="magnify" viewBox="0 0 375 374.999991" height="500" preserveAspectRatio="xMidYMid meet" version="1.0"><defs><clipPath id="bf9c276b91"><path d="M 38 37.5 L 337.5 37.5 L 337.5 337.5 L 38 337.5 Z M 38 37.5 " clip-rule="nonzero"/></clipPath></defs><g clip-path="url(#bf9c276b91)"><path fill="#f0a024" d="M 38.207031 37.917969 L 337.371094 37.917969 L 337.371094 337.082031 L 38.207031 337.082031 Z M 38.207031 37.917969 " fill-opacity="1" fill-rule="nonzero"/></g><path fill="#373122" d="M 51.367188 51.082031 L 324.207031 51.082031 L 324.207031 323.921875 L 51.367188 323.921875 Z M 51.367188 51.082031 " fill-opacity="1" fill-rule="nonzero"/><path fill="#f0a024" d="M 141.65625 208.210938 L 130.855469 244.023438 C 130.679688 245.257812 130.148438 245.671875 129.085938 245.671875 L 111.027344 245.671875 C 109.789062 245.671875 109.4375 245.050781 109.789062 243.613281 C 119.351562 212.121094 135.460938 159.636719 146.789062 124.027344 C 147.320312 121.972656 147.851562 119.914062 148.203125 112.707031 C 148.203125 111.886719 148.738281 111.472656 149.269531 111.472656 L 173.699219 111.472656 C 174.582031 111.472656 174.761719 111.679688 175.113281 112.503906 C 188.214844 154.695312 202.550781 201.214844 216.007812 243.820312 C 216.359375 245.050781 216.007812 245.671875 214.945312 245.671875 L 195.117188 245.671875 C 194.230469 245.671875 193.878906 245.257812 193.523438 244.4375 L 182.195312 208.210938 Z M 177.414062 188.039062 C 173.875 174.25 165.199219 146.464844 161.660156 132.054688 L 161.484375 132.054688 C 158.824219 145.640625 151.570312 168.898438 146.257812 188.039062 Z M 177.414062 188.039062 " fill-opacity="1" fill-rule="nonzero"/><path fill="#f0a024" d="M 233.953125 119.257812 C 233.953125 111.640625 238.996094 106.496094 245.777344 106.496094 C 252.910156 106.496094 257.257812 111.640625 257.257812 119.257812 C 257.257812 127.078125 252.5625 132.019531 245.605469 132.019531 C 238.644531 132.019531 233.953125 127.078125 233.953125 119.257812 Z M 235.167969 147.25 C 235.167969 146.015625 235.515625 145.601562 236.386719 145.601562 L 254.824219 145.601562 C 255.867188 145.601562 256.214844 145.808594 256.214844 147.25 L 256.214844 243.984375 C 256.214844 245.015625 255.867188 245.628906 254.824219 245.628906 L 236.734375 245.628906 C 235.691406 245.628906 235.167969 245.222656 235.167969 243.78125 Z M 235.167969 147.25 " fill-opacity="1" fill-rule="nonzero"/></svg>