<svg xmlns="http://www.w3.org/2000/svg" xmlns:xlink="http://www.w3.org/1999/xlink" width="500" zoomAndPan="magnify" viewBox="0 0 375 374.999991" height="500" preserveAspectRatio="xMidYMid meet" version="1.0"><path fill="#000000" d="M 137.5 275 L 100 275 L 100 150 L 137.5 150 Z M 275 275 L 237.5 275 L 237.5 208.226562 C 237.5 190.824219 231.300781 182.164062 219.011719 182.164062 C 209.273438 182.164062 203.101562 187.011719 200 196.726562 C 200 212.5 200 275 200 275 L 162.5 275 C 162.5 275 163 162.5 162.5 150 L 192.101562 150 L 194.386719 175 L 195.164062 175 C 202.851562 162.5 215.136719 154.023438 231.988281 154.023438 C 244.800781 154.023438 255.164062 157.585938 263.074219 166.539062 C 271.039062 175.5 275 187.523438 275 204.414062 Z M 275 275 " fill-opacity="1" fill-rule="nonzero"/><path fill="#000000" d="M 138.125 118.75 C 138.125 119.363281 138.09375 119.976562 138.03125 120.585938 C 137.96875 121.199219 137.875 121.804688 137.753906 122.40625 C 137.628906 123.011719 137.476562 123.605469 137.289062 124.191406 C 137.105469 124.78125 136.894531 125.359375 136.648438 125.925781 C 136.40625 126.492188 136.136719 127.046875 135.835938 127.589844 C 135.539062 128.128906 135.210938 128.65625 134.859375 129.167969 C 134.507812 129.675781 134.128906 130.171875 133.726562 130.644531 C 133.324219 131.121094 132.898438 131.574219 132.449219 132.007812 C 132 132.441406 131.53125 132.855469 131.042969 133.242188 C 130.550781 133.632812 130.042969 134 129.515625 134.339844 C 128.988281 134.679688 128.441406 134.996094 127.882812 135.285156 C 127.324219 135.574219 126.75 135.835938 126.164062 136.074219 C 125.578125 136.308594 124.980469 136.515625 124.375 136.691406 C 123.765625 136.871094 123.152344 137.019531 122.53125 137.140625 C 121.90625 137.257812 121.28125 137.347656 120.648438 137.410156 C 120.015625 137.46875 119.382812 137.5 118.75 137.5 C 118.117188 137.5 117.480469 137.46875 116.851562 137.410156 C 116.21875 137.347656 115.59375 137.257812 114.96875 137.140625 C 114.347656 137.019531 113.734375 136.871094 113.125 136.691406 C 112.519531 136.515625 111.921875 136.308594 111.335938 136.074219 C 110.75 135.835938 110.175781 135.574219 109.617188 135.285156 C 109.058594 134.996094 108.511719 134.679688 107.984375 134.339844 C 107.457031 134 106.949219 133.632812 106.457031 133.242188 C 105.96875 132.855469 105.5 132.441406 105.050781 132.007812 C 104.601562 131.574219 104.175781 131.121094 103.773438 130.644531 C 103.371094 130.171875 102.992188 129.675781 102.640625 129.167969 C 102.289062 128.65625 101.960938 128.128906 101.664062 127.589844 C 101.363281 127.046875 101.09375 126.492188 100.851562 125.925781 C 100.605469 125.359375 100.394531 124.78125 100.210938 124.191406 C 100.023438 123.605469 99.871094 123.011719 99.746094 122.40625 C 99.625 121.804688 99.53125 121.199219 99.46875 120.585938 C 99.40625 119.976562 99.375 119.363281 99.375 118.75 C 99.375 118.136719 99.40625 117.523438 99.46875 116.914062 C 99.53125 116.300781 99.625 115.695312 99.746094 115.09375 C 99.871094 114.488281 100.023438 113.894531 100.210938 113.308594 C 100.394531 112.71875 100.605469 112.140625 100.851562 111.574219 C 101.09375 111.007812 101.363281 110.453125 101.664062 109.910156 C 101.960938 109.371094 102.289062 108.84375 102.640625 108.332031 C 102.992188 107.824219 103.371094 107.328125 103.773438 106.855469 C 104.175781 106.378906 104.601562 105.925781 105.050781 105.492188 C 105.5 105.058594 105.96875 104.644531 106.457031 104.257812 C 106.949219 103.867188 107.457031 103.5 107.984375 103.160156 C 108.511719 102.820312 109.058594 102.503906 109.617188 102.214844 C 110.175781 101.925781 110.75 101.664062 111.335938 101.425781 C 111.921875 101.191406 112.519531 100.984375 113.125 100.808594 C 113.734375 100.628906 114.347656 100.480469 114.96875 100.359375 C 115.59375 100.242188 116.21875 100.152344 116.851562 100.089844 C 117.480469 100.03125 118.117188 100 118.75 100 C 119.382812 100 120.015625 100.03125 120.648438 100.089844 C 121.28125 100.152344 121.90625 100.242188 122.53125 100.359375 C 123.152344 100.480469 123.765625 100.628906 124.375 100.808594 C 124.980469 100.984375 125.578125 101.191406 126.164062 101.425781 C 126.75 101.664062 127.324219 101.925781 127.882812 102.214844 C 128.441406 102.503906 128.988281 102.820312 129.515625 103.160156 C 130.042969 103.5 130.550781 103.867188 131.042969 104.257812 C 131.53125 104.644531 132 105.058594 132.449219 105.492188 C 132.898438 105.925781 133.324219 106.378906 133.726562 106.855469 C 134.128906 107.328125 134.507812 107.824219 134.859375 108.332031 C 135.210938 108.84375 135.539062 109.371094 135.835938 109.910156 C 136.136719 110.453125 136.40625 111.007812 136.648438 111.574219 C 136.894531 112.140625 137.105469 112.71875 137.289062 113.308594 C 137.476562 113.894531 137.628906 114.488281 137.753906 115.09375 C 137.875 115.695312 137.96875 116.300781 138.03125 116.914062 C 138.09375 117.523438 138.125 118.136719 138.125 118.75 Z M 138.125 118.75 " fill-opacity="1" fill-rule="nonzero"/></svg>