<svg xmlns="http://www.w3.org/2000/svg" xmlns:xlink="http://www.w3.org/1999/xlink" width="500" zoomAndPan="magnify" viewBox="0 0 375 374.999991" height="500" preserveAspectRatio="xMidYMid meet" version="1.0"><defs><clipPath id="2a6d51bd84"><path d="M 38 37.5 L 337.5 37.5 L 337.5 337.5 L 38 337.5 Z M 38 37.5 " clip-rule="nonzero"/></clipPath></defs><g clip-path="url(#2a6d51bd84)"><path fill="#4fc7ec" d="M 38.207031 37.917969 L 337.371094 37.917969 L 337.371094 337.082031 L 38.207031 337.082031 Z M 38.207031 37.917969 " fill-opacity="1" fill-rule="nonzero"/></g><path fill="#242238" d="M 51.367188 51.082031 L 324.207031 51.082031 L 324.207031 323.921875 L 51.367188 323.921875 Z M 51.367188 51.082031 " fill-opacity="1" fill-rule="nonzero"/><path fill="#4fc7ec" d="M 110.96875 110.1875 C 110.96875 109.15625 111.148438 108.746094 112.03125 108.746094 C 118.757812 108.539062 132.039062 108.332031 145.492188 108.332031 C 180.1875 108.332031 193.421875 128.519531 193.597656 152.398438 C 193.597656 185.121094 169.210938 197.53125 143.1875 197.53125 C 138.234375 197.53125 133.453125 197.53125 132.210938 197.53125 L 132.210938 244.285156 C 132.210938 245.519531 131.859375 245.933594 130.972656 245.933594 L 112.207031 245.933594 C 111.324219 245.933594 110.96875 245.519531 110.96875 244.492188 Z M 132.210938 177.566406 C 133.628906 177.773438 136.285156 177.976562 143.722656 177.976562 C 157.703125 177.976562 171.160156 173.992188 171.160156 153.410156 C 171.160156 136.941406 162.132812 128.484375 145.492188 128.484375 C 138.585938 128.484375 133.628906 128.691406 132.210938 128.898438 Z M 132.210938 177.566406 " fill-opacity="1" fill-rule="nonzero"/><path fill="#4fc7ec" d="M 237.785156 162.183594 C 229.257812 162.183594 227 167.511719 227 171.425781 C 227 176.367188 229.257812 179.039062 242.308594 185.214844 C 260.222656 193.859375 267.878906 201.476562 267.878906 216.292969 C 267.878906 236.875 254.484375 248.585938 235.347656 248.585938 C 226.128906 248.585938 214.496094 247.707031 207.191406 242.359375 C 206.496094 241.945312 206.148438 241.328125 206.148438 240.296875 L 206.148438 221.363281 C 206.148438 220.332031 206.84375 219.921875 207.367188 220.332031 C 216.410156 227.125 226.496094 229.054688 235.542969 229.054688 C 243.542969 229.054688 246.328125 223.722656 246.328125 219.195312 C 246.328125 213.84375 244.394531 210.753906 231.867188 204.785156 C 213.953125 196.140625 206.496094 188.714844 206.496094 173.6875 C 206.496094 157.015625 218.996094 143.246094 239.523438 143.246094 C 250.132812 143.246094 257.609375 143.527344 262.484375 146.820312 C 263.351562 147.644531 263.527344 148.261719 263.527344 149.496094 L 263.527344 166.375 C 263.527344 167.605469 262.832031 168.226562 261.960938 167.605469 C 255.699219 163.492188 246.828125 162.183594 237.785156 162.183594 Z M 237.785156 162.183594 " fill-opacity="1" fill-rule="nonzero"/></svg>