<svg xmlns="http://www.w3.org/2000/svg" xmlns:xlink="http://www.w3.org/1999/xlink" width="500" zoomAndPan="magnify" viewBox="0 0 375 374.999991" height="500" preserveAspectRatio="xMidYMid meet" version="1.0"><path fill="#29b6f6" d="M 312.5 106.9375 L 312.5 268.0625 C 312.5 276 307.5625 283.0625 300.125 285.6875 L 245 311.5625 L 250 243.75 L 250 131.25 L 245 63.4375 L 300.125 89.3125 C 307.5625 91.9375 312.5 99 312.5 106.9375 Z M 312.5 106.9375 " fill-opacity="1" fill-rule="nonzero"/><path fill="#0277bd" d="M 93.75 249.351562 L 250 131.25 L 250 70.957031 C 250 63.46875 240.738281 59.96875 235.78125 65.582031 L 66.613281 220.242188 C 60.988281 225.429688 61.304688 234.414062 67.28125 239.195312 C 67.28125 239.195312 75.554688 246.894531 78.550781 249.03125 C 83.148438 252.3125 89.195312 252.6875 93.75 249.351562 Z M 93.75 249.351562 " fill-opacity="1" fill-rule="nonzero"/><path fill="#0288d1" d="M 93.75 125.648438 L 250 243.75 L 250 304.042969 C 250 311.53125 240.738281 315.03125 235.78125 309.417969 L 66.613281 154.757812 C 60.988281 149.570312 61.304688 140.585938 67.28125 135.804688 C 67.28125 135.804688 75.554688 128.105469 78.550781 125.96875 C 83.148438 122.6875 89.195312 122.3125 93.75 125.648438 Z M 93.75 125.648438 " fill-opacity="1" fill-rule="nonzero"/></svg>