<svg xmlns="http://www.w3.org/2000/svg" xmlns:xlink="http://www.w3.org/1999/xlink" width="500" zoomAndPan="magnify" viewBox="0 0 375 374.999991" height="500" preserveAspectRatio="xMidYMid meet" version="1.0"><path fill="#000000" d="M 53.699219 77.101562 C 51.300781 79.5 49.5 131.101562 49.5 191.699219 L 49.5 301.5 L 325.5 301.5 L 324.300781 189.300781 L 322.5 76.5 L 189.898438 74.699219 C 117.300781 74.101562 56.101562 75.300781 53.699219 77.101562 Z M 313.5 115.5 L 313.5 145.5 L 61.5 145.5 L 61.5 85.5 L 313.5 85.5 Z M 313.5 223.5 L 313.5 289.5 L 61.5 289.5 L 61.5 157.5 L 313.5 157.5 Z M 313.5 223.5 " fill-opacity="1" fill-rule="nonzero"/><path fill="#000000" d="M 151.5 115.5 L 151.5 133.5 L 295.5 133.5 L 295.5 97.5 L 151.5 97.5 Z M 283.5 115.5 C 283.5 119.101562 259.5 121.5 223.5 121.5 C 187.5 121.5 163.5 119.101562 163.5 115.5 C 163.5 111.898438 187.5 109.5 223.5 109.5 C 259.5 109.5 283.5 111.898438 283.5 115.5 Z M 283.5 115.5 " fill-opacity="1" fill-rule="nonzero"/><path fill="#000000" d="M 75.898438 110.101562 C 69.898438 120.300781 83.699219 131.699219 92.101562 123.300781 C 99.300781 116.101562 94.5 103.5 85.5 103.5 C 82.5 103.5 78.300781 106.5 75.898438 110.101562 Z M 75.898438 110.101562 " fill-opacity="1" fill-rule="nonzero"/><path fill="#000000" d="M 111.898438 110.101562 C 105.898438 120.300781 119.699219 131.699219 128.101562 123.300781 C 135.300781 116.101562 130.5 103.5 121.5 103.5 C 118.5 103.5 114.300781 106.5 111.898438 110.101562 Z M 111.898438 110.101562 " fill-opacity="1" fill-rule="nonzero"/><path fill="#000000" d="M 79.5 196.5 L 79.5 217.5 L 211.5 217.5 L 211.5 175.5 L 79.5 175.5 Z M 199.5 196.5 C 199.5 203.699219 189.300781 205.5 145.5 205.5 C 101.699219 205.5 91.5 203.699219 91.5 196.5 C 91.5 189.300781 101.699219 187.5 145.5 187.5 C 189.300781 187.5 199.5 189.300781 199.5 196.5 Z M 199.5 196.5 " fill-opacity="1" fill-rule="nonzero"/><path fill="#000000" d="M 229.5 223.5 L 229.5 271.5 L 295.5 271.5 L 295.5 175.5 L 229.5 175.5 Z M 283.5 223.5 L 283.5 259.5 L 241.5 259.5 L 241.5 187.5 L 283.5 187.5 Z M 283.5 223.5 " fill-opacity="1" fill-rule="nonzero"/><path fill="#000000" d="M 79.5 250.5 L 79.5 271.5 L 211.5 271.5 L 211.5 229.5 L 79.5 229.5 Z M 199.5 250.5 C 199.5 257.699219 189.300781 259.5 145.5 259.5 C 101.699219 259.5 91.5 257.699219 91.5 250.5 C 91.5 243.300781 101.699219 241.5 145.5 241.5 C 189.300781 241.5 199.5 243.300781 199.5 250.5 Z M 199.5 250.5 " fill-opacity="1" fill-rule="nonzero"/></svg>