<svg xmlns="http://www.w3.org/2000/svg" xmlns:xlink="http://www.w3.org/1999/xlink" width="500" zoomAndPan="magnify" viewBox="0 0 375 374.999991" height="500" preserveAspectRatio="xMidYMid meet" version="1.0"><defs><clipPath id="f8eb5bfcc6"><path d="M 62 62 L 313 62 L 313 313 L 62 313 Z M 62 62 " clip-rule="nonzero"/></clipPath><clipPath id="5b535d09db"><path d="M 187.5 62.5 C 118.5625 62.5 62.5 118.601562 62.5 187.5 C 62.5 256.398438 118.5625 312.5 187.492188 312.5 C 256.4375 312.5 312.5 256.398438 312.5 187.5 C 312.5 118.601562 256.4375 62.5 187.5 62.5 Z M 187.5 62.5 " clip-rule="nonzero"/></clipPath><linearGradient x1="8.084926" gradientTransform="matrix(6.249999, 0, 0, 6.249999, 37.500004, 37.499999)" y1="1.154254" x2="39.9155" gradientUnits="userSpaceOnUse" y2="46.84545" id="155eab9a5b"><stop stop-opacity="1" stop-color="rgb(5.099487%, 37.998962%, 66.299438%)" offset="0"/><stop stop-opacity="1" stop-color="rgb(5.099487%, 37.998962%, 66.299438%)" offset="0.0625"/><stop stop-opacity="1" stop-color="rgb(5.131531%, 37.945557%, 66.194153%)" offset="0.09375"/><stop stop-opacity="1" stop-color="rgb(5.197144%, 37.835693%, 65.977478%)" offset="0.109375"/><stop stop-opacity="1" stop-color="rgb(5.265808%, 37.721252%, 65.753174%)" offset="0.125"/><stop stop-opacity="1" stop-color="rgb(5.335999%, 37.606812%, 65.52887%)" offset="0.140625"/><stop stop-opacity="1" stop-color="rgb(5.404663%, 37.492371%, 65.30304%)" offset="0.15625"/><stop stop-opacity="1" stop-color="rgb(5.473328%, 37.37793%, 65.078735%)" offset="0.171875"/><stop stop-opacity="1" stop-color="rgb(5.541992%, 37.263489%, 64.852905%)" offset="0.1875"/><stop stop-opacity="1" stop-color="rgb(5.612183%, 37.149048%, 64.628601%)" offset="0.203125"/><stop stop-opacity="1" stop-color="rgb(5.680847%, 37.034607%, 64.404297%)" offset="0.21875"/><stop stop-opacity="1" stop-color="rgb(5.749512%, 36.920166%, 64.178467%)" offset="0.234375"/><stop stop-opacity="1" stop-color="rgb(5.818176%, 36.805725%, 63.954163%)" offset="0.25"/><stop stop-opacity="1" stop-color="rgb(5.886841%, 36.691284%, 63.728333%)" offset="0.265625"/><stop stop-opacity="1" stop-color="rgb(5.957031%, 36.576843%, 63.504028%)" offset="0.28125"/><stop stop-opacity="1" stop-color="rgb(6.025696%, 36.462402%, 63.279724%)" offset="0.296875"/><stop stop-opacity="1" stop-color="rgb(6.09436%, 36.347961%, 63.053894%)" offset="0.3125"/><stop stop-opacity="1" stop-color="rgb(6.163025%, 36.233521%, 62.82959%)" offset="0.328125"/><stop stop-opacity="1" stop-color="rgb(6.233215%, 36.11908%, 62.605286%)" offset="0.34375"/><stop stop-opacity="1" stop-color="rgb(6.30188%, 36.004639%, 62.379456%)" offset="0.359375"/><stop stop-opacity="1" stop-color="rgb(6.370544%, 35.890198%, 62.155151%)" offset="0.375"/><stop stop-opacity="1" stop-color="rgb(6.439209%, 35.775757%, 61.929321%)" offset="0.390625"/><stop stop-opacity="1" stop-color="rgb(6.509399%, 35.661316%, 61.705017%)" offset="0.40625"/><stop stop-opacity="1" stop-color="rgb(6.578064%, 35.546875%, 61.480713%)" offset="0.410602"/><stop stop-opacity="1" stop-color="rgb(6.613159%, 35.490417%, 61.367798%)" offset="0.421875"/><stop stop-opacity="1" stop-color="rgb(6.646729%, 35.432434%, 61.254883%)" offset="0.4375"/><stop stop-opacity="1" stop-color="rgb(6.715393%, 35.317993%, 61.030579%)" offset="0.453125"/><stop stop-opacity="1" stop-color="rgb(6.785583%, 35.203552%, 60.806274%)" offset="0.46875"/><stop stop-opacity="1" stop-color="rgb(6.854248%, 35.089111%, 60.580444%)" offset="0.484375"/><stop stop-opacity="1" stop-color="rgb(6.922913%, 34.97467%, 60.35614%)" offset="0.5"/><stop stop-opacity="1" stop-color="rgb(6.991577%, 34.860229%, 60.13031%)" offset="0.515625"/><stop stop-opacity="1" stop-color="rgb(7.061768%, 34.745789%, 59.906006%)" offset="0.53125"/><stop stop-opacity="1" stop-color="rgb(7.130432%, 34.631348%, 59.681702%)" offset="0.546875"/><stop stop-opacity="1" stop-color="rgb(7.199097%, 34.516907%, 59.455872%)" offset="0.5625"/><stop stop-opacity="1" stop-color="rgb(7.267761%, 34.402466%, 59.231567%)" offset="0.578125"/><stop stop-opacity="1" stop-color="rgb(7.337952%, 34.288025%, 59.007263%)" offset="0.589398"/><stop stop-opacity="1" stop-color="rgb(7.373047%, 34.231567%, 58.894348%)" offset="0.59375"/><stop stop-opacity="1" stop-color="rgb(7.406616%, 34.173584%, 58.781433%)" offset="0.609375"/><stop stop-opacity="1" stop-color="rgb(7.475281%, 34.059143%, 58.557129%)" offset="0.625"/><stop stop-opacity="1" stop-color="rgb(7.543945%, 33.944702%, 58.331299%)" offset="0.640625"/><stop stop-opacity="1" stop-color="rgb(7.614136%, 33.830261%, 58.106995%)" offset="0.65625"/><stop stop-opacity="1" stop-color="rgb(7.6828%, 33.71582%, 57.88269%)" offset="0.671875"/><stop stop-opacity="1" stop-color="rgb(7.751465%, 33.601379%, 57.65686%)" offset="0.6875"/><stop stop-opacity="1" stop-color="rgb(7.820129%, 33.486938%, 57.432556%)" offset="0.703125"/><stop stop-opacity="1" stop-color="rgb(7.89032%, 33.372498%, 57.208252%)" offset="0.71875"/><stop stop-opacity="1" stop-color="rgb(7.958984%, 33.258057%, 56.982422%)" offset="0.734375"/><stop stop-opacity="1" stop-color="rgb(8.027649%, 33.143616%, 56.758118%)" offset="0.75"/><stop stop-opacity="1" stop-color="rgb(8.096313%, 33.030701%, 56.532288%)" offset="0.765625"/><stop stop-opacity="1" stop-color="rgb(8.166504%, 32.91626%, 56.307983%)" offset="0.78125"/><stop stop-opacity="1" stop-color="rgb(8.235168%, 32.801819%, 56.083679%)" offset="0.796875"/><stop stop-opacity="1" stop-color="rgb(8.303833%, 32.687378%, 55.857849%)" offset="0.8125"/><stop stop-opacity="1" stop-color="rgb(8.372498%, 32.572937%, 55.633545%)" offset="0.828125"/><stop stop-opacity="1" stop-color="rgb(8.442688%, 32.458496%, 55.409241%)" offset="0.84375"/><stop stop-opacity="1" stop-color="rgb(8.511353%, 32.344055%, 55.183411%)" offset="0.859375"/><stop stop-opacity="1" stop-color="rgb(8.572388%, 32.243347%, 54.985046%)" offset="0.875"/><stop stop-opacity="1" stop-color="rgb(8.599854%, 32.199097%, 54.899597%)" offset="1"/></linearGradient></defs><g clip-path="url(#f8eb5bfcc6)"><g clip-path="url(#5b535d09db)"><path fill="url(#155eab9a5b)" d="M 62.5 62.5 L 62.5 312.5 L 312.5 312.5 L 312.5 62.5 Z M 62.5 62.5 " fill-rule="nonzero"/></g></g><path fill="#000000" d="M 187.5 306.257812 C 122.007812 306.257812 68.71875 252.980469 68.71875 187.5 C 68.71875 122.023438 122 68.757812 187.492188 68.757812 C 252.992188 68.757812 306.28125 122.023438 306.28125 187.5 C 306.28125 252.980469 252.992188 306.257812 187.5 306.257812 Z M 167.363281 279.070312 C 173.9375 280.519531 180.699219 281.25 187.507812 281.25 C 195.90625 281.25 204.269531 280.117188 212.40625 277.882812 L 189.429688 214.929688 Z M 96.351562 165.550781 C 94.625 172.699219 93.757812 180.050781 93.757812 187.5 C 93.757812 217.898438 107.875 245.523438 131.949219 263.082031 Z M 279.707031 170.554688 C 278.386719 176.148438 276.539062 181.917969 274.125 187.949219 L 250.195312 257.210938 C 269.804688 239.511719 281.25 214.15625 281.25 187.5 C 281.25 181.800781 280.730469 176.136719 279.707031 170.554688 Z M 162.65625 229.207031 L 177.917969 183.40625 L 163.761719 143.980469 C 159.929688 143.664062 156.976562 143.28125 156.976562 143.28125 C 151.636719 142.949219 147.601562 138.386719 147.789062 132.695312 C 147.976562 126.9375 152.382812 122.59375 158.042969 122.59375 L 159.429688 122.679688 C 170.835938 123.460938 179.355469 123.855469 184.75 123.855469 C 194.789062 123.855469 210.761719 122.636719 210.925781 122.625 C 210.929688 122.625 210.9375 122.625 210.945312 122.625 C 217.230469 122.625 221.664062 126.605469 222.007812 132.304688 C 222.289062 137.054688 219.164062 142.511719 212.800781 143.289062 C 212.3125 143.34375 210.960938 143.5 209.074219 143.675781 L 237.09375 227.429688 L 241.425781 213.007812 C 246.335938 200.40625 248.78125 190.210938 248.78125 182.457031 C 248.78125 173.792969 244.757812 167.210938 241.210938 161.40625 C 240.480469 160.210938 239.789062 159.074219 239.167969 157.992188 L 237.9375 156.007812 C 233.074219 148.132812 228.492188 140.699219 228.492188 131.4375 C 228.492188 123.132812 233.6875 115.125 241.414062 110.769531 C 225.757812 99.757812 206.820312 93.75 187.507812 93.75 C 161.363281 93.75 136.800781 104.492188 119.082031 123.445312 C 127.46875 123.085938 135.804688 122.449219 135.914062 122.445312 L 136.75 122.414062 C 142.261719 122.414062 146.675781 126.585938 147.007812 132.125 C 147.289062 136.875 144.148438 142.335938 137.769531 143.105469 C 137.34375 143.15625 135.988281 143.3125 134.070312 143.492188 Z M 162.65625 229.207031 " fill-opacity="0.05" fill-rule="nonzero"/><path fill="#000000" d="M 187.5 303.132812 C 123.726562 303.132812 71.84375 251.261719 71.84375 187.5 C 71.84375 123.75 123.726562 71.882812 187.492188 71.882812 C 251.269531 71.882812 303.15625 123.75 303.15625 187.5 C 303.15625 251.261719 251.273438 303.132812 187.5 303.132812 Z M 163.289062 281.304688 C 171.148438 283.34375 179.28125 284.375 187.507812 284.375 C 197.324219 284.375 207.054688 282.886719 216.488281 279.945312 L 189.34375 205.582031 Z M 96.03125 155.574219 C 92.445312 165.824219 90.632812 176.53125 90.632812 187.5 C 90.632812 222.207031 108.632812 253.460938 138.125 270.867188 Z M 278.886719 155.3125 C 278.226562 165.335938 275.75 175.480469 271.230469 186.789062 L 243.707031 266.429688 C 268.992188 248.367188 284.375 218.882812 284.375 187.5 C 284.375 176.53125 282.5 165.625 278.886719 155.3125 Z M 162.664062 239.082031 L 181.230469 183.363281 L 166.023438 141.019531 C 161.355469 140.695312 157.375 140.179688 157.375 140.179688 C 153.585938 139.9375 150.78125 136.824219 150.914062 132.792969 C 151.042969 128.757812 154.113281 125.71875 158.042969 125.71875 C 158.789062 125.75 175.175781 126.980469 184.742188 126.980469 C 194.96875 126.980469 210.992188 125.757812 211.15625 125.742188 C 211.175781 125.742188 211.1875 125.742188 211.207031 125.742188 C 215.667969 125.742188 218.648438 128.585938 218.886719 132.5 C 219.09375 135.90625 216.9375 139.644531 212.425781 140.1875 C 212.25 140.207031 209.054688 140.585938 204.855469 140.898438 L 237.261719 237.761719 L 244.425781 213.914062 C 249.425781 201.113281 251.914062 190.613281 251.914062 182.460938 C 251.914062 172.917969 247.460938 165.632812 243.882812 159.78125 C 243.167969 158.613281 242.488281 157.507812 241.882812 156.445312 L 240.601562 154.367188 C 235.980469 146.886719 231.617188 139.820312 231.617188 131.4375 C 231.617188 122.492188 238.679688 114.207031 247.601562 111.492188 C 230.582031 97.988281 209.5 90.625 187.507812 90.625 C 158.164062 90.625 130.375 104.039062 112.042969 126.78125 C 122.175781 126.632812 136.007812 125.570312 136.15625 125.554688 L 136.742188 125.539062 C 140.644531 125.539062 143.644531 128.386719 143.882812 132.304688 C 144.085938 135.71875 141.925781 139.457031 137.386719 140 C 137.21875 140.019531 134.042969 140.398438 129.835938 140.710938 Z M 162.664062 239.082031 " fill-opacity="0.07" fill-rule="nonzero"/><path fill="#ffffff" d="M 187.492188 75.007812 C 125.429688 75.007812 74.96875 125.476562 74.96875 187.5 C 74.96875 249.523438 125.449219 300.007812 187.5 300.007812 C 249.554688 300.007812 300.03125 249.523438 300.03125 187.5 C 300.03125 125.476562 249.554688 75.007812 187.492188 75.007812 Z M 87.507812 187.5 C 87.507812 172.976562 90.613281 159.242188 96.15625 146.800781 L 143.867188 277.5 C 110.507812 261.289062 87.507812 227.101562 87.507812 187.5 Z M 187.507812 287.5 C 177.695312 287.5 168.230469 286.085938 159.257812 283.425781 L 189.257812 196.226562 L 219.992188 280.457031 C 220.199219 280.9375 220.480469 281.386719 220.730469 281.832031 C 210.3125 285.476562 199.136719 287.5 187.507812 287.5 Z M 200.59375 138.03125 C 206.605469 137.738281 212.042969 137.082031 212.042969 137.082031 C 217.425781 136.429688 216.773438 128.5 211.394531 128.855469 C 211.394531 128.855469 195.210938 130.105469 184.742188 130.105469 C 174.9375 130.105469 158.386719 128.855469 158.386719 128.855469 C 153.011719 128.488281 152.386719 136.730469 157.773438 137.082031 C 157.773438 137.082031 162.886719 137.742188 168.269531 138.03125 L 184.539062 183.332031 L 162.664062 248.960938 L 125.59375 137.851562 C 131.617188 137.554688 137.019531 136.898438 137.019531 136.898438 C 142.429688 136.25 141.773438 128.320312 136.398438 128.675781 C 136.398438 128.675781 120.179688 129.925781 109.75 129.925781 C 107.851562 129.925781 107.355469 130.144531 105.929688 129.679688 C 124.050781 104.164062 153.824219 87.5 187.507812 87.5 C 213.550781 87.5 237.257812 97.398438 255.03125 113.738281 C 254.585938 113.726562 254.1875 113.6875 253.742188 113.6875 C 243.929688 113.6875 234.738281 122.28125 234.738281 131.4375 C 234.738281 139.65625 239.507812 146.582031 244.585938 154.886719 C 248.382812 161.523438 255.023438 170.105469 255.023438 182.460938 C 255.023438 191.054688 252.492188 201.804688 247.40625 214.804688 L 237.414062 248.09375 Z M 237.792969 273.96875 L 268.324219 185.625 C 274.03125 171.335938 275.945312 159.945312 275.945312 149.769531 C 275.945312 146.105469 275.710938 142.675781 275.269531 139.488281 C 283.054688 153.773438 287.5 170.117188 287.5 187.5 C 287.5 224.386719 267.53125 256.644531 237.792969 273.96875 Z M 237.792969 273.96875 " fill-opacity="1" fill-rule="nonzero"/></svg>